<?xml version="1.0" standalone="no"?>
<!DOCTYPE svg PUBLIC "-//W3C//DTD SVG 1.1//EN" "http://www.w3.org/Graphics/SVG/1.1/DTD/svg11.dtd">
<svg fill="none" fill-rule="evenodd" stroke="black" stroke-width="0.501" stroke-linejoin="bevel" stroke-miterlimit="10" font-family="Times New Roman" font-size="16" style="font-variant-ligatures:none" xmlns:xlink="http://www.w3.org/1999/xlink" xmlns="http://www.w3.org/2000/svg" version="1.1" overflow="visible" width="36pt" height="36pt" viewBox="0 -36 36 36">
 <defs>
	</defs>
 <g id="Layer 1" transform="scale(1 -1)">
  <path d="M 10.492,23.092 C 10.492,24.043 10.797,25.007 11.408,25.983 C 12.019,26.959 12.91,27.768 14.081,28.409 C 15.253,29.05 16.62,29.37 18.182,29.37 C 19.634,29.37 20.915,29.102 22.027,28.566 C 23.138,28.031 23.996,27.303 24.602,26.381 C 25.208,25.46 25.511,24.459 25.511,23.377 C 25.511,22.526 25.338,21.78 24.993,21.139 C 24.648,20.499 24.237,19.946 23.761,19.48 C 23.286,19.014 22.432,18.231 21.2,17.129 C 20.86,16.819 20.587,16.546 20.382,16.311 C 20.177,16.075 20.024,15.86 19.924,15.665 C 19.824,15.47 19.746,15.274 19.691,15.079 C 19.636,14.884 19.553,14.541 19.443,14.05 C 19.253,13.009 18.658,12.489 17.656,12.488 C 17.135,12.489 16.697,12.659 16.342,12.999 C 15.986,13.339 15.808,13.845 15.808,14.516 C 15.808,15.357 15.939,16.085 16.199,16.701 C 16.459,17.317 16.805,17.858 17.235,18.323 C 17.666,18.789 18.247,19.342 18.978,19.983 C 19.619,20.543 20.082,20.967 20.367,21.252 C 20.653,21.537 20.893,21.855 21.088,22.206 C 21.283,22.556 21.381,22.937 21.381,23.347 C 21.381,24.148 21.083,24.824 20.487,25.375 C 19.892,25.925 19.123,26.201 18.182,26.201 C 17.08,26.201 16.269,25.923 15.749,25.367 C 15.228,24.812 14.787,23.993 14.427,22.912 C 14.086,21.78 13.44,21.214 12.489,21.214 C 11.928,21.214 11.456,21.412 11.07,21.808 C 10.684,22.203 10.492,22.631 10.492,23.092 Z M 17.821,6.631 C 17.21,6.631 16.677,6.828 16.222,7.224 C 15.766,7.62 15.538,8.173 15.538,8.884 C 15.538,9.514 15.758,10.045 16.199,10.475 C 16.64,10.906 17.18,11.121 17.821,11.121 C 18.452,11.121 18.983,10.906 19.413,10.475 C 19.844,10.045 20.059,9.514 20.059,8.884 C 20.059,8.183 19.834,7.632 19.383,7.232 C 18.933,6.831 18.412,6.631 17.821,6.631 Z" fill-rule="nonzero" stroke-linejoin="round" stroke-linecap="round" stroke="none" stroke-width="0.77" fill="#2797c6" marker-start="none" marker-end="none"/>
  <path d="M 5.933,4.64 C -1.441,11.3 -2.022,22.694 4.64,30.068 C 11.3,37.442 22.694,38.022 30.068,31.361 C 37.442,24.701 38.022,13.307 31.361,5.933 C 24.701,-1.441 13.307,-2.022 5.933,4.64 Z M 30.006,7.157 C 35.99,13.782 35.469,24.021 28.844,30.006 C 22.218,35.99 11.979,35.469 5.994,28.844 C 0.011,22.218 0.531,11.979 7.157,5.994 C 13.782,0.011 24.021,0.531 30.006,7.157 Z" stroke="none" fill="#2797c6" stroke-width="0.713" fill-rule="evenodd" marker-start="none" marker-end="none"/>
 </g>
</svg>
